<svg xmlns="http://www.w3.org/2000/svg" viewBox="0 0 214.8 63.53"><defs><style>.cls-1,.cls-4{fill:none;}.cls-1,.cls-2,.cls-3,.cls-7{fill-rule:evenodd;}.cls-2{fill:#002060;}.cls-3{fill:#fff;}.cls-4{stroke:#41719c;stroke-miterlimit:8;stroke-width:0.96px;}.cls-5{font-size:66px;font-family:28-Days-Later-Regular, "28 Days Later";}.cls-13,.cls-5,.cls-7,.cls-8{fill:red;}.cls-6{fill:#f8cbad;}.cls-8{font-size:14.04px;}.cls-13,.cls-8{font-family:Calibri;}.cls-9{letter-spacing:0em;}.cls-10{letter-spacing:0em;}.cls-11{letter-spacing:-0.01em;}.cls-12{letter-spacing:0.01em;}.cls-13{font-size:18px;}.cls-14{letter-spacing:0em;}.cls-15{letter-spacing:-0.01em;}.cls-16{letter-spacing:0em;}.cls-17{letter-spacing:0em;}.cls-18{letter-spacing:0em;}</style></defs><title>Asset 2</title><g id="Layer_2" data-name="Layer 2"><g id="Layer_1-2" data-name="Layer 1"><polygon class="cls-1" points="0 2.6 214.8 2.6 214.8 61.52 0 61.52 0 2.6 0 2.6"/><path class="cls-2" d="M.24,20.9c0-4.73,14.77-8.58,33-8.58s33,3.85,33,8.58-14.77,8.58-33,8.58-33-3.84-33-8.58Z"/><polygon class="cls-2" points="8.4 25.52 58.08 25.52 58.08 33.56 8.4 33.56 8.4 25.52 8.4 25.52"/><path class="cls-3" d="M58.08,23.48a100.88,100.88,0,0,1,4.05,11.13l1,3c.33,3.71.48,7.44,1,11.13a16.59,16.59,0,0,0,1,3"/><path class="cls-4" d="M58.08,23.48a100.88,100.88,0,0,1,4.05,11.13l1,3c.33,3.71.48,7.44,1,11.13a16.59,16.59,0,0,0,1,3"/><text class="cls-5" transform="translate(65.79 60.1)">k</text><rect class="cls-6" x="7.82" y="36.92" width="54.65" height="9.47" rx="3.85" transform="translate(-15.78 22.23) rotate(-28.96)"/><path class="cls-7" d="M31.2,38.12c.34,2.36.55,4.74,1,7.08.21,1,.26,2.28,1,3,.48.48,1.36,0,2,0"/><path class="cls-7" d="M37.2,34c1.07,9.91-2,9.23,3,9.23"/><text class="cls-8" transform="translate(92.17 31.12)"><tspan class="cls-9">O</tspan><tspan class="cls-10" x="9.25" y="0">NN</tspan><tspan class="cls-11" x="27.49" y="0">E</tspan><tspan class="cls-12" x="34.22" y="0">C</tspan><tspan x="41.78" y="0">T</tspan></text><text class="cls-13" transform="translate(96.23 44.67)"><tspan class="cls-14">A</tspan><tspan class="cls-15" x="10.43" y="0">c</tspan><tspan x="17.88" y="0">a</tspan><tspan class="cls-16" x="26.5" y="0">d</tspan><tspan class="cls-17" x="35.98" y="0">e</tspan><tspan class="cls-16" x="44.97" y="0">m</tspan><tspan class="cls-18" x="59.37" y="0">i</tspan><tspan x="63.46" y="0">a</tspan></text></g></g></svg>