<svg xmlns="http://www.w3.org/2000/svg" xmlns:xlink="http://www.w3.org/1999/xlink" viewBox="0 0 270.46 327.2"><defs><style>.cls-1,.cls-2{fill:none;}.cls-1{clip-rule:evenodd;}.cls-3{clip-path:url(#clip-path);}.cls-4{clip-path:url(#clip-path-2);}.cls-5{fill:#010101;}</style><clipPath id="clip-path" transform="translate(-63.88 -35.25)"><polygon class="cls-1" points="0 398.16 398.16 398.16 398.16 0 0 0 0 398.16 0 398.16"/></clipPath><clipPath id="clip-path-2" transform="translate(-63.88 -35.25)"><polygon class="cls-2" points="0 398.16 398.16 398.16 398.16 0 0 0 0 398.16 0 398.16"/></clipPath></defs><title>Asset 1</title><g id="Layer_2" data-name="Layer 2"><g id="Layer_1-2" data-name="Layer 1"><g class="cls-3"><g class="cls-4"><path class="cls-5" d="M246,154.69a31.11,31.11,0,1,1,31.11-31.11A31.07,31.07,0,0,1,246,154.69Zm70.1-50.6a69.48,69.48,0,0,0-6.64-16.17l6.64-19.49L301.16,53.5l-19.5,6.63a70,70,0,0,0-16.18-6.63l-9.12-18.25H235.62L226.49,53.5a70,70,0,0,0-16.18,6.63L190.82,53.5,175.88,68.43l6.64,19.49a69.91,69.91,0,0,0-6.64,16.17l-18.25,9.12V134l18.25,9.12a70,70,0,0,0,6.64,16.18l-6.64,19.49,14.52,14.51,19.5-6.63a69.89,69.89,0,0,0,16.17,6.63l9.13,18.25h20.74l9.13-18.25a70,70,0,0,0,16.18-6.63l19.49,6.63,14.94-14.51L309,159.25a80.08,80.08,0,0,0,7-16.18L334.34,134V113.21l-18.25-9.12Z" transform="translate(-63.88 -35.25)"/><path class="cls-5" d="M152.24,305.64a31.11,31.11,0,1,1,31.11-31.1,31.06,31.06,0,0,1-31.11,31.1Zm63.46-66.77,6.64-19.49-14.93-14.93-19.5,6.64a77.73,77.73,0,0,0-16.18-6.64l-9.12-18.25H141.87l-9.13,18.25a69.55,69.55,0,0,0-16.18,6.64l-19.49-6.64L82.55,219l6.22,19.5a78.2,78.2,0,0,0-6.64,16.17l-18.25,9.12v20.74l18.25,9.12a70,70,0,0,0,6.64,16.18l-6.22,19.49,14.52,14.51,19.49-6.22a70,70,0,0,0,16.18,6.64l9.13,18.24h20.74l9.12-18.24a70,70,0,0,0,16.18-6.64l19.5,6.64,14.52-14.93L215.7,310.2A69.66,69.66,0,0,0,222.34,294l18.25-9.13V264.17L222.34,255a69.66,69.66,0,0,0-6.64-16.17Z" transform="translate(-63.88 -35.25)"/></g></g></g></g></svg>