<svg xmlns="http://www.w3.org/2000/svg" viewBox="0 0 176.71 176.25"><defs><style>.cls-1{fill:#21409a;}</style></defs><title>gear</title><g id="Layer_2" data-name="Layer 2"><g id="Layer_1-2" data-name="Layer 1"><path class="cls-1" d="M88.36,119.44a31.11,31.11,0,1,1,31.11-31.11,31.07,31.07,0,0,1-31.11,31.11Zm70.1-50.6a69.48,69.48,0,0,0-6.64-16.17l6.64-19.49L143.53,18.25,124,24.88a70,70,0,0,0-16.18-6.63L98.73,0H78L68.86,18.25a70,70,0,0,0-16.18,6.63L33.19,18.25,18.25,33.18l6.64,19.49a69.91,69.91,0,0,0-6.64,16.17L0,78V98.7l18.25,9.12A70,70,0,0,0,24.89,124l-6.64,19.49L32.77,158l19.5-6.63A69.89,69.89,0,0,0,68.44,158l9.13,18.25H98.31L107.44,158a70.15,70.15,0,0,0,16.18-6.63L143.11,158l14.94-14.51L151.41,124a80.08,80.08,0,0,0,7.05-16.18l18.25-9.12V78l-18.25-9.12Z"/></g></g></svg>