<svg xmlns="http://www.w3.org/2000/svg" xmlns:xlink="http://www.w3.org/1999/xlink" viewBox="0 0 475.7 534.33"><defs><style>.cls-1,.cls-3{fill:none;}.cls-2{clip-path:url(#clip-path);}.cls-3{stroke:#bfb000;stroke-linecap:round;stroke-miterlimit:10;stroke-width:13px;}.cls-4{fill:#bfb000;}</style><clipPath id="clip-path"><ellipse class="cls-1" cx="251.29" cy="266.79" rx="224.42" ry="253.65"/></clipPath></defs><title>logo</title><g id="Layer_2" data-name="Layer 2"><g id="Layer_1-2" data-name="Layer 1"><g class="cls-2"><image width="400" height="600" transform="scale(1.19 0.89)" xlink:href="../../../Softwares/depositphotos_26653551-stock-illustration-vector-black-and-gold-luxury.jpg"/></g><path class="cls-3" d="M414.57,401.92c-84.32-16.6-104.92-10.31-129.44,10.45-3.79,3.22-3.16,12.09-11.55,16.14-6.06,2.91-14.23,1.42-19.65-2.32-5.12-3.53-5.53-7.52-9.25-12.71-5.89-8.23-14.26-11.32-24.27-15-16.44-6.08-57.82-6.61-110.94,4.62"/><path class="cls-4" d="M121.59,373.4c-.57-2.49,7.11-6.39,13.35-9.17,10.33-2.49,47.59-10.17,85.7,10.14A118.69,118.69,0,0,1,263.1,413c-32.38-27.41-60.37-35.57-79.89-38C153.74,371.35,122.7,378.25,121.59,373.4Z"/><path class="cls-4" d="M127.52,347.55c-.59-1.48,5.89-3.47,11.17-4.85,8.81-1.07,40.67-4.13,74.39,9.23,20,7.93,32.18,18.29,38.21,24.23-29.06-17.3-53.56-23.15-70.5-25.31C155.2,347.59,128.68,350.43,127.52,347.55Z"/><path class="cls-4" d="M407.14,371.88c.58-2.49-7.11-6.38-13.35-9.16-10.33-2.5-47.59-10.18-85.7,10.13a118.78,118.78,0,0,0-42.46,38.59C298,384,326,375.87,345.52,373.47,375,369.83,406,376.73,407.14,371.88Z"/><path class="cls-4" d="M397.7,346c.59-1.48-5.89-3.46-11.17-4.85-8.81-1.07-40.67-4.13-74.39,9.23-20,7.94-32.18,18.29-38.21,24.23,29.06-17.3,53.55-23.15,70.5-25.31C370,346.07,396.54,348.91,397.7,346Z"/><path class="cls-4" d="M251.44,93.44v30.05l-33.51,2.31c-3.68-8.24-12.33-12.43-19.65-10.4-9.11,2.52-12.6,13.69-10.4,21.95s10.38,14.33,17.33,13.87,8.32-6.83,16.18-10.4c5.26-2.38,13.81-3.71,27.74,2.31l4.62,135.22c-.59,3.15-4.45,22.09-19.64,28.89-12.81,5.74-26-.57-39.3-6.93a104.36,104.36,0,0,1-37-30.05q15.9,4.1,17.33,1.16,2.75-5.62-47.38-37A184.1,184.1,0,0,0,128.94,268c1.56,12.4,4.95,29,8.09,28.89s3.49-17.11,6.93-17.33c3.11-.2,3.41,13.57,9.25,25.42,8.83,17.93,34.51,29.92,85.52,53.16A58.23,58.23,0,0,1,258.38,372a57.37,57.37,0,0,1,11.55,19.65c5.33-57.91,6.94-260.24-1-296.36C267.77,90.18,258.4,92.38,251.44,93.44Z"/></g></g></svg>