<svg xmlns="http://www.w3.org/2000/svg" viewBox="0 0 42.48 32.39"><defs><style>.cls-1{fill:#fff;}</style></defs><title>smally2</title><g id="Layer_2" data-name="Layer 2"><g id="Layer_1-2" data-name="Layer 1"><path class="cls-1" d="M41.34,14.09h0L24,.87a4.83,4.83,0,0,0-5.53,0L1.15,14.08h0a2.51,2.51,0,0,0,0,4.21,4.55,4.55,0,0,0,2.6.87h.81V28.9c0,1.93,2.05,3.49,4.58,3.49h6.78a1.12,1.12,0,0,0,1.24-.95V23.82a1.89,1.89,0,0,1,2.09-1.59h4a1.89,1.89,0,0,1,2.09,1.59v7.62a1.12,1.12,0,0,0,1.24.95h6.78c2.53,0,4.58-1.56,4.58-3.49V19.18h.64a4.56,4.56,0,0,0,2.77-.88A2.51,2.51,0,0,0,41.34,14.09ZM39.58,17a1.65,1.65,0,0,1-1,.32H36.68a1.12,1.12,0,0,0-1.24.95V28.9a1.89,1.89,0,0,1-2.09,1.59H27.82V23.82c0-1.93-2.06-3.49-4.58-3.49h-4c-2.52,0-4.58,1.56-4.58,3.49v6.67H9.13A1.89,1.89,0,0,1,7,28.9V18.23a1.13,1.13,0,0,0-1.25-.95H3.88a1.69,1.69,0,0,1-1-.32.92.92,0,0,1,0-1.53h0L20.23,2.22a1.65,1.65,0,0,1,1-.32,1.6,1.6,0,0,1,1,.32l17.33,13.2h0A.92.92,0,0,1,39.58,17Z"/></g></g></svg>