<svg xmlns="http://www.w3.org/2000/svg" viewBox="0 0 21.72 16.56"><defs><style>.cls-1{fill:#3a75f7;}</style></defs><title>smally---</title><g id="Layer_2" data-name="Layer 2"><g id="Layer_1-2" data-name="Layer 1"><path class="cls-1" d="M21.14,7.2h0L12.27.45a2.43,2.43,0,0,0-2.82,0L.59,7.2h0a1.29,1.29,0,0,0,0,2.15,2.3,2.3,0,0,0,1.33.44h.42v5a2.12,2.12,0,0,0,2.34,1.78H8.13c.36,0,.64-.21.64-.48v-3.9a1,1,0,0,1,1.07-.81h2a1,1,0,0,1,1.07.81v3.9c0,.27.29.48.64.48h3.46a2.12,2.12,0,0,0,2.34-1.78v-5h.33a2.34,2.34,0,0,0,1.42-.45A1.29,1.29,0,0,0,21.14,7.2Zm-.9,1.47a.83.83,0,0,1-.52.17h-1c-.35,0-.64.21-.64.48v5.46a1,1,0,0,1-1.07.81H14.22V12.18a2.13,2.13,0,0,0-2.34-1.79h-2A2.13,2.13,0,0,0,7.5,12.18v3.41H4.67a1,1,0,0,1-1.07-.81V9.32c0-.27-.29-.48-.64-.48H2a.82.82,0,0,1-.51-.16.47.47,0,0,1,0-.78h0l8.86-6.76a.89.89,0,0,1,1,0l8.86,6.76h0A.47.47,0,0,1,20.24,8.67Z"/></g></g></svg>